<svg width="709" height="94" viewBox="0 0 709 94" fill="none" xmlns="http://www.w3.org/2000/svg">
<g clip-path="url(#clip0)">
  <path d="M38.7192 26.328C37.9467 26.328 37.2906 26.709 36.9626 27.2593V24H36.116V31.7249H36.8567L36.9097 30.8042C37.2271 31.418 37.9044 31.8307 38.7086 31.8307C40.0208 31.8307 41.1319 30.8042 41.1319 29.0794C41.1319 27.3545 40.0313 26.328 38.7192 26.328ZM38.6239 31.0899C37.6292 31.0899 36.9626 30.3175 36.9626 29.1005C36.9626 27.8836 37.6398 27.0688 38.6345 27.0688C39.6821 27.0688 40.2853 27.8624 40.2853 29.0794C40.2853 30.2963 39.6716 31.0899 38.6239 31.0899Z" fill="#9AA5A5"/>
  <path d="M46.733 26.4339H45.8229L44.5848 29.7778L44.2039 30.8254L43.8758 29.8836L42.5531 26.4339H41.5901L43.8018 31.7143L43.5266 32.4021C43.2621 33.1005 42.934 33.2593 42.5637 33.2593C42.2568 33.2593 41.9182 33.1429 41.643 32.8889L41.4102 33.6296C41.7171 33.8624 42.1192 34 42.606 34C43.3573 34 43.8335 33.6508 44.2462 32.6138L46.733 26.4339Z" fill="#9AA5A5"/>
  <path d="M55.5342 24.7407H49.8199V25.5344H52.2537V31.7249H53.1003V25.5344H55.5342V24.7407Z" fill="#9AA5A5"/>
  <path d="M55.9064 31.7249H56.753V28.8677C56.753 27.6825 57.5255 27.1217 58.1921 27.1217C58.5308 27.1217 58.6789 27.1534 58.8376 27.2063L58.9858 26.4339C58.8271 26.3492 58.5837 26.328 58.4038 26.328C57.5784 26.328 57.007 26.6561 56.7107 27.3016L56.5943 26.4339H55.9064V31.7249Z" fill="#9AA5A5"/>
  <path d="M64.2083 31.0794C63.9438 31.0794 63.8062 30.9524 63.8062 30.6984V28.1376C63.8062 26.8995 62.9068 26.328 61.7639 26.328C60.6316 26.328 59.8486 26.8571 59.5628 27.6508L60.2507 28.0741C60.4835 27.3757 61.0126 27.0688 61.7427 27.0688C62.5152 27.0688 62.9597 27.5238 62.9597 28.3069V28.5079L61.0337 28.8889C60.0919 29.0794 59.5311 29.5979 59.5311 30.3915C59.5311 31.3545 60.3353 31.8307 61.2771 31.8307C61.8909 31.8307 62.5999 31.5767 62.9702 31.0265C63.0655 31.545 63.4888 31.7989 64.0073 31.7989C64.2401 31.7989 64.4306 31.7566 64.5575 31.6931L64.5999 31.0265C64.4835 31.0582 64.3247 31.0794 64.2083 31.0794ZM61.3935 31.0899C60.7586 31.0899 60.3988 30.7831 60.3988 30.3492C60.3988 29.8942 60.7269 29.672 61.4253 29.5238L62.9597 29.2063V29.7672C62.9597 30.6772 62.2083 31.0899 61.3935 31.0899Z" fill="#9AA5A5"/>
  <path d="M67.8423 26.328C66.3502 26.328 65.2814 27.3651 65.2814 29.0794C65.2814 30.7937 66.3502 31.8307 67.8423 31.8307C68.964 31.8307 69.7259 31.2487 70.0857 30.2751L69.3026 30C69.1439 30.6984 68.6465 31.0899 67.8211 31.0899C66.7629 31.0899 66.128 30.3386 66.128 29.0794C66.128 27.8201 66.7629 27.0688 67.8211 27.0688C68.5513 27.0688 69.0063 27.4392 69.2285 28.1164L70.0327 27.7354C69.6412 26.8677 68.9322 26.328 67.8423 26.328Z" fill="#9AA5A5"/>
  <path d="M75.8589 28.7302C75.8589 27.3757 75.0017 26.328 73.5203 26.328C72.0494 26.328 70.9912 27.3651 70.9912 29.0794C70.9912 30.7937 72.0599 31.8307 73.5732 31.8307C74.5996 31.8307 75.351 31.3757 75.7531 30.6561L75.0864 30.2646C74.7901 30.7725 74.3245 31.0899 73.552 31.0899C72.5573 31.0899 71.9118 30.4339 71.8271 29.3228H75.8166C75.8377 29.1746 75.8589 28.9735 75.8589 28.7302ZM73.4991 27.0688C74.3774 27.0688 74.9806 27.6085 75.0123 28.5714H71.8589C72.007 27.619 72.6102 27.0688 73.4991 27.0688Z" fill="#9AA5A5"/>
  <path d="M81.5959 31.0794C81.3314 31.0794 81.1938 30.9524 81.1938 30.6984V28.1376C81.1938 26.8995 80.2943 26.328 79.1515 26.328C78.0192 26.328 77.2361 26.8571 76.9504 27.6508L77.6382 28.0741C77.871 27.3757 78.4001 27.0688 79.1303 27.0688C79.9028 27.0688 80.3472 27.5238 80.3472 28.3069V28.5079L78.4213 28.8889C77.4795 29.0794 76.9187 29.5979 76.9187 30.3915C76.9187 31.3545 77.7229 31.8307 78.6647 31.8307C79.2785 31.8307 79.9874 31.5767 80.3578 31.0265C80.4531 31.545 80.8763 31.7989 81.3948 31.7989C81.6277 31.7989 81.8181 31.7566 81.9451 31.6931L81.9874 31.0265C81.871 31.0582 81.7123 31.0794 81.5959 31.0794ZM78.7811 31.0899C78.1462 31.0899 77.7864 30.7831 77.7864 30.3492C77.7864 29.8942 78.1144 29.672 78.8128 29.5238L80.3472 29.2063V29.7672C80.3472 30.6772 79.5959 31.0899 78.7811 31.0899Z" fill="#9AA5A5"/>
  <path d="M85.6425 26.328C84.87 26.328 84.214 26.709 83.8859 27.2593V24H83.0394V31.7249H83.7801L83.833 30.8042C84.1505 31.418 84.8277 31.8307 85.632 31.8307C86.9441 31.8307 88.0552 30.8042 88.0552 29.0794C88.0552 27.3545 86.9547 26.328 85.6425 26.328ZM85.5473 31.0899C84.5526 31.0899 83.8859 30.3175 83.8859 29.1005C83.8859 27.8836 84.5632 27.0688 85.5579 27.0688C86.6055 27.0688 87.2087 27.8624 87.2087 29.0794C87.2087 30.2963 86.5949 31.0899 85.5473 31.0899Z" fill="#9AA5A5"/>
  <path d="M90.2664 24H89.4198V30.4127C89.4198 31.3757 89.8325 31.8307 90.6897 31.8307C90.9648 31.8307 91.2505 31.7778 91.4727 31.6825L91.6103 30.9418C91.3034 31.0582 91.1764 31.0899 90.8907 31.0899C90.4569 31.0899 90.2664 30.9206 90.2664 30.381V24Z" fill="#9AA5A5"/>
  <path d="M96.9824 28.7302C96.9824 27.3757 96.1253 26.328 94.6438 26.328C93.1729 26.328 92.1147 27.3651 92.1147 29.0794C92.1147 30.7937 93.1835 31.8307 94.6967 31.8307C95.7231 31.8307 96.4745 31.3757 96.8766 30.6561L96.2099 30.2646C95.9136 30.7725 95.448 31.0899 94.6755 31.0899C93.6808 31.0899 93.0353 30.4339 92.9507 29.3228H96.9401C96.9612 29.1746 96.9824 28.9735 96.9824 28.7302ZM94.6226 27.0688C95.5009 27.0688 96.1041 27.6085 96.1358 28.5714H92.9824C93.1306 27.619 93.7337 27.0688 94.6226 27.0688Z" fill="#9AA5A5"/>
  <path d="M5.713 8.56919C5.49157 8.56563 5.27161 8.60573 5.06568 8.68719C4.85974 8.76865 4.67187 8.88989 4.5128 9.04397C4.35373 9.19804 4.22657 9.38195 4.13858 9.58518C4.05059 9.78841 4.0035 10.007 4 10.2284L4 10.336C4.0035 10.5574 4.05059 10.776 4.13858 10.9792C4.22657 11.1824 4.35373 11.3663 4.5128 11.5204C4.67187 11.6745 4.85974 11.7957 5.06568 11.8772C5.27161 11.9587 5.49157 11.9988 5.713 11.9952C5.93444 11.9988 6.1544 11.9587 6.36033 11.8772C6.56627 11.7957 6.75413 11.6745 6.91321 11.5204C7.07228 11.3663 7.19944 11.1824 7.28743 10.9792C7.37542 10.776 7.42251 10.5574 7.42601 10.336V10.2284C7.42251 10.007 7.37542 9.78841 7.28743 9.58518C7.19944 9.38195 7.07228 9.19804 6.91321 9.04397C6.75413 8.88989 6.56627 8.76865 6.36033 8.68719C6.1544 8.60573 5.93444 8.56563 5.713 8.56919V8.56919Z" fill="#8273F1"/>
  <path d="M28.5601 8.5692L24.1643 4.18107L24.1086 4.13114L24.051 4.08889C23.9143 3.99999 23.7513 3.96064 23.5891 3.97742C23.427 3.99419 23.2755 4.06607 23.1599 4.18107L22.4359 4.92043C22.3381 5.01764 22.2812 5.14862 22.2769 5.28648C22.2726 5.42434 22.3213 5.5586 22.4129 5.6617C23.5362 6.95196 24.1516 8.60692 24.1442 10.3176C24.1368 12.0284 23.507 13.6779 22.3725 14.9584C22.3124 15.0428 22.2784 15.1429 22.2746 15.2465V15.2906C22.2746 15.2906 22.2746 15.3098 22.2746 15.3175C22.2746 15.3252 22.2746 15.329 22.2746 15.3348C22.2746 15.3406 22.2746 15.3521 22.2746 15.3598C22.2746 15.3674 22.2746 15.3713 22.2746 15.377V15.402V15.4212C22.2738 15.4289 22.2738 15.4366 22.2746 15.4443C22.2738 15.4506 22.2738 15.4571 22.2746 15.4635C22.2738 15.4705 22.2738 15.4776 22.2746 15.4846C22.2789 15.4911 22.2822 15.4982 22.2842 15.5057C22.2848 15.5115 22.2848 15.5173 22.2842 15.523L22.2976 15.546V15.5614C22.303 15.5705 22.3094 15.5789 22.3169 15.5864V15.5998L22.3476 15.6344L23.0927 16.3795C23.1587 16.4457 23.2371 16.4982 23.3235 16.534C23.4098 16.5699 23.5024 16.5883 23.5958 16.5883C23.6893 16.5883 23.7819 16.5699 23.8682 16.534C23.9546 16.4982 24.033 16.4457 24.099 16.3795L28.491 11.9875C28.7204 11.7679 28.9042 11.5051 29.0319 11.2143C29.1596 10.9234 29.2286 10.6103 29.235 10.2927C29.2414 9.97516 29.1851 9.65945 29.0693 9.3637C28.9535 9.06795 28.7805 8.79796 28.5601 8.5692Z" fill="#8273F1"/>
  <path d="M17.704 3H13.8479C13.1383 3 12.5631 3.5752 12.5631 4.28475C12.5631 4.9943 13.1383 5.56951 13.8479 5.56951H17.704C18.4136 5.56951 18.9888 4.9943 18.9888 4.28475C18.9888 3.5752 18.4136 3 17.704 3Z" fill="#8273F1"/>
  <path d="M17.704 14.9929H13.8479C13.1383 14.9929 12.5631 15.5681 12.5631 16.2777C12.5631 16.9872 13.1383 17.5624 13.8479 17.5624H17.704C18.4136 17.5624 18.9888 16.9872 18.9888 16.2777C18.9888 15.5681 18.4136 14.9929 17.704 14.9929Z" fill="#8273F1"/>
  <path d="M20.2735 8.99744H11.2822C10.5726 8.99744 9.99743 9.57264 9.99743 10.2822C9.99743 10.9917 10.5726 11.5669 11.2822 11.5669H20.2735C20.9831 11.5669 21.5583 10.9917 21.5583 10.2822C21.5583 9.57264 20.9831 8.99744 20.2735 8.99744Z" fill="#8273F1"/>
  <path d="M45.815 11.4248V17.4376C45.8145 17.4711 45.801 17.503 45.7773 17.5267C45.7536 17.5504 45.7217 17.5639 45.6882 17.5644H43.2762C43.2426 17.5644 43.2103 17.551 43.1866 17.5273C43.1628 17.5035 43.1494 17.4712 43.1494 17.4376V11.9913C43.1494 10.576 42.3409 9.62733 41.11 9.62733C39.5948 9.62733 38.6134 10.6375 38.6134 13.1013V17.4376C38.6129 17.4711 38.5994 17.503 38.5758 17.5267C38.5521 17.5504 38.5202 17.5639 38.4867 17.5644H36.0708C36.0374 17.5639 36.0054 17.5504 35.9817 17.5267C35.9581 17.503 35.9446 17.4711 35.9441 17.4376V3.15171C35.9441 3.11809 35.9574 3.08586 35.9812 3.06209C36.005 3.03832 36.0372 3.02496 36.0708 3.02496H38.4828C38.5165 3.02496 38.5487 3.03832 38.5725 3.06209C38.5962 3.08586 38.6096 3.11809 38.6096 3.15171V8.10636C38.61 8.13044 38.6172 8.15391 38.6305 8.17402C38.6437 8.19413 38.6624 8.21005 38.6844 8.21993C38.7063 8.2298 38.7306 8.23321 38.7545 8.22976C38.7783 8.22632 38.8007 8.21615 38.8189 8.20046C39.5871 7.53792 40.5627 7.18457 41.7802 7.18457C44.1999 7.18457 45.815 8.92062 45.815 11.4248Z" fill="#323C44"/>
  <path d="M51.4341 20.9962H48.7455C48.7246 20.996 48.7042 20.9906 48.6859 20.9806C48.6676 20.9705 48.652 20.9561 48.6406 20.9387C48.6292 20.9212 48.6223 20.9012 48.6205 20.8804C48.6187 20.8596 48.6221 20.8387 48.6303 20.8195L50.1474 17.2898C50.1541 17.274 50.1575 17.257 50.1575 17.2398C50.1575 17.2227 50.1541 17.2057 50.1474 17.1899L46.0569 7.64356C46.0487 7.62423 46.0453 7.60315 46.0472 7.5822C46.0491 7.56126 46.0562 7.54112 46.0678 7.52359C46.0794 7.50606 46.0952 7.4917 46.1138 7.4818C46.1323 7.47191 46.1531 7.46678 46.1741 7.46689H48.8627C48.8878 7.46666 48.9125 7.47405 48.9334 7.48811C48.9543 7.50216 48.9705 7.52221 48.9798 7.54562L51.4994 13.6314C51.5085 13.6547 51.5245 13.6748 51.5453 13.6889C51.566 13.703 51.5905 13.7106 51.6156 13.7106C51.6406 13.7106 51.6651 13.703 51.6859 13.6889C51.7066 13.6748 51.7226 13.6547 51.7317 13.6314L54.3665 7.54178C54.3768 7.51917 54.3932 7.49994 54.4139 7.48634C54.4347 7.47273 54.4589 7.46532 54.4837 7.46497H57.1723C57.1931 7.46517 57.2136 7.47053 57.2319 7.48056C57.2502 7.4906 57.2658 7.50499 57.2772 7.52247C57.2886 7.53995 57.2955 7.55997 57.2973 7.58076C57.2991 7.60155 57.2957 7.62246 57.2875 7.64164L51.5416 20.9193C51.5329 20.9411 51.5181 20.9598 51.4991 20.9734C51.48 20.987 51.4575 20.9949 51.4341 20.9962V20.9962Z" fill="#323C44"/>
  <path d="M69.1172 12.5348C69.1172 15.7054 66.734 17.8659 64.1702 17.8659C63.0521 17.8971 61.9535 17.5686 61.0361 16.9287C61.0172 16.9173 60.9957 16.9111 60.9737 16.9106C60.9517 16.9101 60.9299 16.9153 60.9105 16.9258C60.8911 16.9362 60.8748 16.9516 60.8631 16.9703C60.8515 16.989 60.8449 17.0104 60.8441 17.0324V20.8732C60.8441 20.8899 60.8408 20.9064 60.8344 20.9217C60.8281 20.9371 60.8187 20.9511 60.807 20.9629C60.7952 20.9746 60.7812 20.984 60.7658 20.9903C60.7505 20.9967 60.734 21 60.7173 21H58.2995C58.2828 21.0002 58.2662 20.9971 58.2507 20.9909C58.2352 20.9846 58.2212 20.9753 58.2093 20.9634C58.1975 20.9516 58.1882 20.9375 58.1819 20.922C58.1756 20.9065 58.1725 20.89 58.1728 20.8732V7.60898C58.1725 7.59226 58.1756 7.57566 58.1819 7.56017C58.1882 7.54467 58.1975 7.5306 58.2093 7.51877C58.2212 7.50695 58.2352 7.49763 58.2507 7.49135C58.2662 7.48507 58.2828 7.48197 58.2995 7.48223H60.7116C60.7287 7.48145 60.7458 7.48415 60.7618 7.49017C60.7779 7.49619 60.7926 7.5054 60.8049 7.51725C60.8173 7.5291 60.8272 7.54334 60.8339 7.5591C60.8406 7.57487 60.8441 7.59184 60.8441 7.60898V8.02955C60.8452 8.0514 60.852 8.07258 60.8638 8.09102C60.8756 8.10946 60.892 8.12454 60.9113 8.13479C60.9306 8.14504 60.9523 8.15011 60.9742 8.1495C60.996 8.14889 61.0174 8.14263 61.0361 8.13133C61.9465 7.47763 63.046 7.14035 64.1664 7.17112C66.734 7.18457 69.1172 9.36615 69.1172 12.5348ZM66.5323 12.5348C66.5323 10.6778 65.3205 9.50634 63.7055 9.50634C62.2709 9.50634 60.8441 10.6816 60.8441 12.5348C60.8441 14.388 62.2767 15.5441 63.7112 15.5441C65.3205 15.5441 66.5323 14.3938 66.5323 12.5348Z" fill="#323C44"/>
  <path d="M80.1173 13.2415H72.7256C72.7066 13.2414 72.6878 13.2455 72.6706 13.2536C72.6534 13.2617 72.6383 13.2736 72.6263 13.2884C72.6143 13.3031 72.6058 13.3204 72.6014 13.3389C72.597 13.3573 72.5968 13.3766 72.6008 13.3952C72.9062 14.7587 73.9067 15.5844 75.0973 15.5844C75.8655 15.5844 76.8257 15.4884 77.5555 14.3285C77.5694 14.3064 77.5897 14.289 77.6137 14.2787C77.6377 14.2684 77.6643 14.2657 77.6899 14.2709L79.8312 14.7241C79.8498 14.7279 79.8674 14.7358 79.8826 14.7473C79.8978 14.7589 79.9102 14.7737 79.9189 14.7907C79.9276 14.8076 79.9323 14.8264 79.9327 14.8454C79.9332 14.8645 79.9293 14.8834 79.9214 14.9008C79.0092 16.9038 77.2444 17.8659 75.0935 17.8659C72.2475 17.8659 69.9257 15.7054 69.9257 12.5348C69.9257 9.36423 72.2475 7.18457 75.1338 7.18457C77.8224 7.18457 80.1423 9.26437 80.244 12.3332V13.1148C80.244 13.1484 80.2307 13.1806 80.2069 13.2044C80.1831 13.2282 80.1509 13.2415 80.1173 13.2415ZM72.8197 11.3653H77.3461C77.3662 11.3648 77.3859 11.3596 77.4037 11.3502C77.4214 11.3407 77.4366 11.3272 77.4482 11.3108C77.4598 11.2943 77.4674 11.2754 77.4703 11.2556C77.4733 11.2357 77.4715 11.2154 77.4652 11.1963C77.3222 10.6937 77.0143 10.2539 76.5911 9.94735C76.168 9.64085 75.654 9.48552 75.1319 9.50634C74.6006 9.49818 74.08 9.65684 73.6435 9.96C73.2071 10.2631 72.8766 10.6955 72.6988 11.1963C72.6924 11.2157 72.6907 11.2363 72.6938 11.2565C72.697 11.2767 72.7049 11.2958 72.7169 11.3123C72.7289 11.3288 72.7447 11.3422 72.7629 11.3515C72.7811 11.3607 72.8012 11.3654 72.8217 11.3653H72.8197Z" fill="#323C44"/>
  <path d="M88.4365 7.52637L88.3059 9.87119C88.304 9.90364 88.2898 9.93415 88.2663 9.95659C88.2428 9.97904 88.2117 9.99175 88.1792 9.99218H87.7125C85.2486 9.99218 84.1194 11.5055 84.1194 14.3131V17.4376C84.1189 17.4711 84.1054 17.503 84.0817 17.5267C84.0581 17.5503 84.0261 17.5638 83.9927 17.5643H81.5845C81.5509 17.5643 81.5186 17.551 81.4949 17.5272C81.4711 17.5035 81.4577 17.4712 81.4577 17.4376V7.60895C81.4575 7.59223 81.4606 7.57564 81.4669 7.56014C81.4731 7.54465 81.4825 7.53057 81.4943 7.51875C81.5061 7.50693 81.5202 7.4976 81.5357 7.49132C81.5512 7.48504 81.5678 7.48194 81.5845 7.4822H83.9965C84.0132 7.4822 84.0296 7.48548 84.045 7.49185C84.0604 7.49822 84.0744 7.50756 84.0861 7.51933C84.0979 7.5311 84.1072 7.54507 84.1136 7.56045C84.12 7.57582 84.1233 7.5923 84.1233 7.60895V8.93595C84.1229 8.96231 84.1308 8.98813 84.146 9.0097C84.1611 9.03127 84.1827 9.04748 84.2077 9.05601C84.2326 9.06454 84.2596 9.06495 84.2848 9.05718C84.31 9.04941 84.3321 9.03386 84.348 9.01277C84.7413 8.48901 85.2524 8.06519 85.8399 7.7756C86.4274 7.48602 87.0748 7.3388 87.7298 7.34585C87.9321 7.3366 88.1348 7.35338 88.3328 7.39578C88.3628 7.40169 88.3897 7.41808 88.4087 7.442C88.4277 7.46593 88.4375 7.49584 88.4365 7.52637Z" fill="#323C44"/>
  <path d="M98.0174 17.019C98.0273 17.0477 98.0265 17.079 98.0152 17.1072C98.0039 17.1354 97.9829 17.1586 97.956 17.1726C96.9574 17.6988 96.2506 17.8678 95.4287 17.8678C93.0455 17.8678 91.4707 16.6157 91.4707 13.8503V9.79439C91.4703 9.76093 91.4567 9.72898 91.4331 9.70531C91.4094 9.68165 91.3775 9.66814 91.344 9.66764H89.437C89.4203 9.6679 89.4037 9.6648 89.3882 9.65852C89.3727 9.65224 89.3586 9.64292 89.3468 9.63109C89.335 9.61927 89.3257 9.6052 89.3194 9.5897C89.3131 9.57421 89.31 9.55761 89.3103 9.54089V7.60896C89.31 7.59225 89.3131 7.57565 89.3194 7.56015C89.3257 7.54466 89.335 7.53058 89.3468 7.51876C89.3586 7.50694 89.3727 7.49761 89.3882 7.49134C89.4037 7.48506 89.4203 7.48196 89.437 7.48222H91.344C91.3775 7.48172 91.4094 7.46821 91.4331 7.44454C91.4567 7.42088 91.4703 7.38893 91.4707 7.35547V4.56512C91.4705 4.5484 91.4736 4.5318 91.4799 4.51631C91.4861 4.50081 91.4955 4.48674 91.5073 4.47492C91.5191 4.46309 91.5332 4.45377 91.5487 4.44749C91.5642 4.44121 91.5808 4.43811 91.5975 4.43837H94.0095C94.0431 4.43837 94.0754 4.45172 94.0991 4.47549C94.1229 4.49926 94.1363 4.5315 94.1363 4.56512V7.36123C94.1363 7.39485 94.1496 7.42708 94.1734 7.45085C94.1972 7.47462 94.2294 7.48798 94.263 7.48798H97.5488C97.5656 7.48772 97.5821 7.49082 97.5976 7.4971C97.6131 7.50338 97.6272 7.5127 97.639 7.52452C97.6509 7.53634 97.6602 7.55042 97.6665 7.56592C97.6727 7.58141 97.6758 7.59801 97.6756 7.61472V9.53513C97.6758 9.55185 97.6727 9.56845 97.6665 9.58394C97.6602 9.59944 97.6509 9.61351 97.639 9.62533C97.6272 9.63716 97.6131 9.64648 97.5976 9.65276C97.5821 9.65904 97.5656 9.66214 97.5488 9.66188H94.2592C94.2256 9.66188 94.1933 9.67523 94.1696 9.699C94.1458 9.72277 94.1324 9.75501 94.1324 9.78863V13.6467C94.1324 14.8585 94.7182 15.3751 95.6054 15.3751C96.1446 15.3432 96.6715 15.2007 97.1532 14.9564C97.1695 14.9487 97.1872 14.9444 97.2052 14.9439C97.2232 14.9434 97.2411 14.9467 97.2578 14.9536C97.2745 14.9605 97.2895 14.9708 97.3019 14.9839C97.3143 14.9969 97.3239 15.0124 97.3299 15.0294L98.0174 17.019Z" fill="#323C44"/>
  <path d="M106.064 7.52637L105.935 9.87119C105.933 9.90364 105.919 9.93415 105.896 9.95659C105.872 9.97904 105.841 9.99175 105.809 9.99218H105.342C102.88 9.99218 101.749 11.5055 101.749 14.3131V17.4376C101.748 17.4711 101.735 17.503 101.711 17.5267C101.687 17.5503 101.655 17.5638 101.622 17.5643H99.21C99.1764 17.5643 99.1441 17.551 99.1204 17.5272C99.0966 17.5035 99.0832 17.4712 99.0832 17.4376V7.60895C99.083 7.59223 99.0861 7.57564 99.0924 7.56014C99.0986 7.54465 99.108 7.53057 99.1198 7.51875C99.1316 7.50693 99.1457 7.4976 99.1612 7.49132C99.1767 7.48504 99.1933 7.48194 99.21 7.4822H101.622C101.639 7.4822 101.655 7.48548 101.671 7.49185C101.686 7.49822 101.7 7.50756 101.712 7.51933C101.723 7.5311 101.733 7.54507 101.739 7.56045C101.745 7.57582 101.749 7.5923 101.749 7.60895V8.93595C101.749 8.96223 101.757 8.98778 101.773 9.00907C101.788 9.03035 101.81 9.04632 101.835 9.05476C101.86 9.0632 101.887 9.06369 101.912 9.05616C101.937 9.04864 101.959 9.03348 101.975 9.01277C102.368 8.48682 102.88 8.06116 103.469 7.77048C104.057 7.4798 104.706 7.33233 105.363 7.34009C105.565 7.33075 105.768 7.34753 105.966 7.39002C105.996 7.39726 106.022 7.415 106.04 7.44002C106.058 7.46505 106.067 7.49568 106.064 7.52637V7.52637Z" fill="#323C44"/>
  <path d="M117.25 17.5644H114.838C114.805 17.5639 114.773 17.5504 114.749 17.5267C114.726 17.503 114.712 17.4711 114.712 17.4376V17.0324C114.711 17.0102 114.705 16.9884 114.694 16.9693C114.682 16.9503 114.666 16.9346 114.646 16.9241C114.626 16.9135 114.604 16.9083 114.582 16.9092C114.56 16.91 114.538 16.9167 114.519 16.9287C113.602 17.568 112.503 17.8964 111.385 17.8659C108.822 17.8659 106.438 15.7054 106.438 12.5348C106.438 9.36423 108.822 7.18457 111.385 7.18457C112.653 7.18457 113.69 7.52832 114.518 8.14477C114.536 8.15669 114.558 8.16344 114.58 8.16434C114.602 8.16524 114.624 8.16026 114.643 8.14991C114.663 8.13956 114.679 8.12421 114.691 8.10542C114.703 8.08663 114.709 8.06509 114.71 8.04299V7.60898C114.71 7.57536 114.723 7.54313 114.747 7.51936C114.77 7.49559 114.803 7.48223 114.836 7.48223H117.248C117.265 7.48197 117.282 7.48508 117.297 7.49135C117.313 7.49763 117.327 7.50696 117.339 7.51878C117.35 7.5306 117.36 7.54468 117.366 7.56017C117.372 7.57567 117.375 7.59226 117.375 7.60898V17.4376C117.375 17.4709 117.362 17.5029 117.339 17.5266C117.315 17.5503 117.284 17.5639 117.25 17.5644V17.5644ZM114.712 12.5348C114.712 10.6778 113.279 9.50634 111.844 9.50634C110.229 9.50634 109.018 10.6778 109.018 12.5348C109.018 14.3919 110.229 15.5441 111.844 15.5441C113.271 15.5441 114.712 14.3938 114.712 12.5348Z" fill="#323C44"/>
  <path d="M126.678 13.4931L128.905 14.0692C128.938 14.0778 128.966 14.099 128.983 14.1281C129.001 14.1572 129.006 14.1919 128.997 14.2248C128.389 16.4544 126.34 17.8736 123.981 17.8736C121.032 17.8736 118.589 15.7131 118.589 12.5425C118.589 9.37191 121.032 7.19224 123.981 7.19224C125.09 7.17636 126.175 7.51661 127.077 8.16299C127.978 8.80937 128.649 9.72782 128.99 10.7834C128.995 10.7995 128.997 10.8166 128.995 10.8335C128.994 10.8504 128.989 10.8668 128.981 10.8817C128.973 10.8966 128.962 10.9097 128.948 10.9202C128.935 10.9307 128.92 10.9384 128.903 10.9428L126.587 11.5996C126.555 11.6085 126.52 11.6042 126.49 11.5877C126.461 11.5711 126.439 11.5437 126.43 11.5112C126.046 10.1862 125.118 9.635 123.981 9.635C122.305 9.635 121.174 10.8276 121.174 12.5425C121.174 14.2574 122.305 15.4231 123.981 15.4231C125.12 15.4231 126.05 14.8873 126.528 13.5738C126.538 13.5441 126.559 13.5195 126.587 13.5046C126.615 13.4897 126.647 13.4856 126.678 13.4931V13.4931Z" fill="#323C44"/>
  <path d="M140.028 13.2415H132.637C132.618 13.2414 132.599 13.2455 132.582 13.2536C132.564 13.2617 132.549 13.2736 132.537 13.2884C132.525 13.3031 132.517 13.3204 132.512 13.3389C132.508 13.3573 132.508 13.3766 132.512 13.3952C132.817 14.7587 133.818 15.5844 135.008 15.5844C135.776 15.5844 136.737 15.4884 137.465 14.3285C137.478 14.3064 137.499 14.289 137.523 14.2787C137.547 14.2684 137.573 14.2657 137.599 14.2709L139.742 14.7241C139.761 14.7282 139.778 14.7363 139.793 14.7479C139.808 14.7595 139.82 14.7743 139.829 14.7912C139.837 14.8081 139.842 14.8266 139.843 14.8456C139.844 14.8645 139.84 14.8834 139.832 14.9008C138.922 16.9038 137.159 17.8659 135.008 17.8659C132.16 17.8659 129.839 15.7054 129.839 12.5348C129.839 9.36423 132.16 7.18457 135.049 7.18457C137.737 7.18457 140.057 9.26437 140.157 12.3332V13.1148C140.157 13.1317 140.154 13.1484 140.148 13.1641C140.141 13.1797 140.132 13.1938 140.12 13.2057C140.108 13.2175 140.093 13.2268 140.078 13.233C140.062 13.2392 140.045 13.2421 140.028 13.2415V13.2415ZM132.731 11.3653H137.257C137.277 11.3651 137.297 11.3601 137.315 11.3508C137.333 11.3415 137.349 11.328 137.361 11.3115C137.372 11.2951 137.38 11.276 137.383 11.256C137.386 11.236 137.384 11.2155 137.378 11.1963C137.235 10.6939 136.927 10.2542 136.504 9.94778C136.081 9.64132 135.567 9.48587 135.045 9.50634C134.513 9.49807 133.992 9.65665 133.556 9.9598C133.119 10.2629 132.788 10.6954 132.61 11.1963C132.603 11.2157 132.602 11.2363 132.605 11.2565C132.608 11.2767 132.616 11.2958 132.628 11.3123C132.64 11.3288 132.656 11.3422 132.674 11.3515C132.692 11.3607 132.712 11.3654 132.733 11.3653H132.731Z" fill="#323C44"/>
</g>
<defs>
<clipPath id="clip0">
<rect width="708.99" height="93.71" fill="white"/>
</clipPath>
</defs>
</svg>
