<svg width="709" height="94" viewBox="0 0 709 94" fill="none" xmlns="http://www.w3.org/2000/svg">
<g clip-path="url(#clip0)">
<path d="M8.92 29C7.76696 28.9815 6.62155 29.1903 5.54921 29.6145C4.47687 30.0387 3.4986 30.67 2.67028 31.4723C1.84195 32.2746 1.17979 33.2323 0.721618 34.2905C0.263447 35.3488 0.0182391 36.487 0 37.64L0 38.2C0.0182391 39.3531 0.263447 40.4912 0.721618 41.5495C1.17979 42.6078 1.84195 43.5654 2.67028 44.3677C3.4986 45.1701 4.47687 45.8013 5.54921 46.2255C6.62155 46.6497 7.76696 46.8585 8.92 46.84C10.073 46.8585 11.2184 46.6497 12.2908 46.2255C13.3631 45.8013 14.3414 45.1701 15.1697 44.3677C15.9981 43.5654 16.6602 42.6078 17.1184 41.5495C17.5766 40.4912 17.8218 39.3531 17.84 38.2V37.64C17.8218 36.487 17.5766 35.3488 17.1184 34.2905C16.6602 33.2323 15.9981 32.2746 15.1697 31.4723C14.3414 30.67 13.3631 30.0387 12.2908 29.6145C11.2184 29.1903 10.073 28.9815 8.92 29V29Z" fill="#8273F1"/>
<path d="M127.89 29L105 6.14999L104.71 5.88999L104.41 5.66999C103.698 5.20706 102.85 5.00217 102.005 5.08952C101.161 5.17688 100.372 5.55119 99.77 6.14999L96 9.99999C95.4905 10.5062 95.1942 11.1883 95.1718 11.9061C95.1495 12.624 95.4029 13.3231 95.88 13.86C101.729 20.5786 104.934 29.1964 104.895 38.1046C104.857 47.0127 101.578 55.6023 95.67 62.27C95.3571 62.7094 95.1798 63.2309 95.16 63.77V64C95.16 64 95.16 64.1 95.16 64.14C95.16 64.18 95.16 64.2 95.16 64.23C95.16 64.26 95.16 64.32 95.16 64.36C95.16 64.4 95.16 64.42 95.16 64.45V64.58V64.68C95.1557 64.7199 95.1557 64.7601 95.16 64.8C95.156 64.8332 95.156 64.8668 95.16 64.9C95.1559 64.9365 95.1559 64.9734 95.16 65.01C95.1826 65.0437 95.1995 65.0808 95.21 65.12C95.2133 65.1499 95.2133 65.1801 95.21 65.21L95.28 65.33V65.41C95.3076 65.4574 95.3412 65.5011 95.38 65.54V65.61L95.54 65.79L99.42 69.67C99.7637 70.0147 100.172 70.2882 100.622 70.4748C101.071 70.6614 101.553 70.7574 102.04 70.7574C102.527 70.7574 103.009 70.6614 103.458 70.4748C103.908 70.2882 104.316 70.0147 104.66 69.67L127.53 46.8C128.725 45.6562 129.682 44.2879 130.347 42.7735C131.012 41.259 131.371 39.6283 131.404 37.9747C131.438 36.3211 131.145 34.6772 130.542 33.1371C129.939 31.5971 129.037 30.1912 127.89 29Z" fill="#8273F1"/>
<path d="M71.36 0H51.28C47.5852 0 44.59 2.99522 44.59 6.69C44.59 10.3848 47.5852 13.38 51.28 13.38H71.36C75.0548 13.38 78.05 10.3848 78.05 6.69C78.05 2.99522 75.0548 0 71.36 0Z" fill="#8273F1"/>
<path d="M71.36 62.45H51.28C47.5852 62.45 44.59 65.4452 44.59 69.14C44.59 72.8348 47.5852 75.83 51.28 75.83H71.36C75.0548 75.83 78.05 72.8348 78.05 69.14C78.05 65.4452 75.0548 62.45 71.36 62.45Z" fill="#8273F1"/>
<path d="M84.74 31.23H37.92C34.2252 31.23 31.23 34.2252 31.23 37.92C31.23 41.6148 34.2252 44.61 37.92 44.61H84.74C88.4348 44.61 91.43 41.6148 91.43 37.92C91.43 34.2252 88.4348 31.23 84.74 31.23Z" fill="#8273F1"/>
<path d="M217.74 43.87V75.18C217.737 75.3542 217.667 75.5206 217.544 75.6438C217.421 75.7671 217.254 75.8374 217.08 75.84H204.52C204.345 75.84 204.177 75.7705 204.053 75.6467C203.93 75.5229 203.86 75.3551 203.86 75.18V46.82C203.86 39.45 199.65 34.51 193.24 34.51C185.35 34.51 180.24 39.77 180.24 52.6V75.18C180.237 75.3542 180.167 75.5206 180.044 75.6438C179.921 75.7671 179.754 75.8374 179.58 75.84H167C166.826 75.8374 166.659 75.7671 166.536 75.6438C166.413 75.5206 166.343 75.3542 166.34 75.18V0.790005C166.34 0.614962 166.41 0.447088 166.533 0.323314C166.657 0.19954 166.825 0.130005 167 0.130005H179.56C179.735 0.130005 179.903 0.19954 180.027 0.323314C180.15 0.447088 180.22 0.614962 180.22 0.790005V26.59C180.222 26.7154 180.26 26.8376 180.329 26.9423C180.398 27.047 180.495 27.1299 180.609 27.1814C180.724 27.2328 180.85 27.2505 180.974 27.2326C181.098 27.2146 181.215 27.1617 181.31 27.08C185.31 23.63 190.39 21.79 196.73 21.79C209.33 21.79 217.74 30.83 217.74 43.87Z" fill="#E7F5F4"/>
<path d="M247 93.71H233C232.891 93.7089 232.785 93.681 232.689 93.6288C232.594 93.5765 232.513 93.5016 232.454 93.4106C232.394 93.3196 232.358 93.2153 232.349 93.107C232.34 92.9988 232.357 92.8899 232.4 92.79L240.3 74.41C240.335 74.3277 240.353 74.2393 240.353 74.15C240.353 74.0607 240.335 73.9723 240.3 73.89L219 24.18C218.957 24.0793 218.939 23.9695 218.949 23.8605C218.959 23.7514 218.996 23.6465 219.057 23.5553C219.117 23.464 219.199 23.3892 219.296 23.3377C219.393 23.2861 219.5 23.2594 219.61 23.26H233.61C233.741 23.2588 233.87 23.2973 233.979 23.3705C234.087 23.4437 234.172 23.5481 234.22 23.67L247.34 55.36C247.388 55.4816 247.471 55.5859 247.579 55.6595C247.687 55.733 247.814 55.7724 247.945 55.7724C248.076 55.7724 248.203 55.733 248.311 55.6595C248.419 55.5859 248.502 55.4816 248.55 55.36L262.27 23.65C262.323 23.5323 262.409 23.4321 262.517 23.3613C262.625 23.2904 262.751 23.2518 262.88 23.25H276.88C276.989 23.2511 277.095 23.279 277.191 23.3312C277.286 23.3835 277.367 23.4584 277.426 23.5494C277.486 23.6404 277.522 23.7447 277.531 23.853C277.54 23.9612 277.523 24.0701 277.48 24.17L247.56 93.31C247.514 93.4231 247.438 93.5208 247.338 93.5917C247.239 93.6625 247.122 93.7036 247 93.71V93.71Z" fill="#E7F5F4"/>
<path d="M339.08 49.65C339.08 66.16 326.67 77.41 313.32 77.41C307.498 77.5726 301.777 75.862 297 72.53C296.902 72.4708 296.79 72.4383 296.675 72.4356C296.56 72.4329 296.447 72.4601 296.346 72.5147C296.245 72.5692 296.16 72.6491 296.099 72.7464C296.039 72.8438 296.004 72.9554 296 73.07V93.07C296 93.1567 295.983 93.2425 295.95 93.3226C295.917 93.4026 295.868 93.4754 295.807 93.5367C295.745 93.598 295.673 93.6466 295.593 93.6798C295.512 93.7129 295.427 93.73 295.34 93.73H282.75C282.663 93.7314 282.577 93.7152 282.496 93.6825C282.415 93.6498 282.342 93.6013 282.28 93.5397C282.219 93.4781 282.17 93.4048 282.137 93.3242C282.105 93.2435 282.089 93.157 282.09 93.07V24C282.089 23.913 282.105 23.8265 282.137 23.7458C282.17 23.6652 282.219 23.5919 282.28 23.5303C282.342 23.4687 282.415 23.4202 282.496 23.3875C282.577 23.3548 282.663 23.3386 282.75 23.34H295.31C295.399 23.3359 295.488 23.35 295.572 23.3814C295.655 23.4127 295.732 23.4607 295.796 23.5224C295.861 23.5841 295.912 23.6582 295.947 23.7403C295.982 23.8224 296 23.9107 296 24V26.19C296.006 26.3038 296.041 26.4141 296.103 26.5101C296.164 26.6061 296.249 26.6847 296.35 26.738C296.451 26.7914 296.563 26.8178 296.677 26.8146C296.791 26.8115 296.902 26.7789 297 26.72C301.741 23.3161 307.466 21.5598 313.3 21.72C326.67 21.79 339.08 33.15 339.08 49.65ZM325.62 49.65C325.62 39.98 319.31 33.88 310.9 33.88C303.43 33.88 296 40 296 49.65C296 59.3 303.46 65.32 310.93 65.32C319.31 65.32 325.62 59.33 325.62 49.65Z" fill="#E7F5F4"/>
<path d="M396.36 53.33H357.87C357.771 53.3293 357.673 53.3508 357.584 53.393C357.494 53.4352 357.415 53.497 357.353 53.5738C357.29 53.6506 357.246 53.7405 357.223 53.8368C357.2 53.9331 357.199 54.0333 357.22 54.13C358.81 61.23 364.02 65.53 370.22 65.53C374.22 65.53 379.22 65.03 383.02 58.99C383.092 58.8749 383.198 58.7845 383.323 58.7309C383.448 58.6773 383.587 58.663 383.72 58.69L394.87 61.05C394.967 61.0697 395.059 61.1111 395.138 61.1711C395.217 61.2311 395.282 61.3082 395.327 61.3966C395.372 61.4851 395.397 61.5826 395.399 61.6818C395.401 61.7811 395.381 61.8796 395.34 61.97C390.59 72.4 381.4 77.41 370.2 77.41C355.38 77.41 343.29 66.16 343.29 49.65C343.29 33.14 355.38 21.79 370.41 21.79C384.41 21.79 396.49 32.62 397.02 48.6V52.67C397.02 52.845 396.95 53.0129 396.827 53.1367C396.703 53.2605 396.535 53.33 396.36 53.33ZM358.36 43.56H381.93C382.035 43.5575 382.137 43.5305 382.229 43.4812C382.322 43.4319 382.401 43.3616 382.462 43.2761C382.522 43.1905 382.561 43.0921 382.577 42.9886C382.592 42.885 382.583 42.7794 382.55 42.68C381.805 40.063 380.202 37.7725 377.999 36.1764C375.795 34.5804 373.119 33.7716 370.4 33.88C367.633 33.8375 364.922 34.6637 362.65 36.2423C360.377 37.8209 358.656 40.0724 357.73 42.68C357.697 42.781 357.688 42.8884 357.704 42.9934C357.721 43.0985 357.762 43.1981 357.824 43.2841C357.887 43.3701 357.969 43.4399 358.064 43.4879C358.159 43.5359 358.264 43.5606 358.37 43.56H358.36Z" fill="#E7F5F4"/>
<path d="M439.68 23.57L439 35.78C438.99 35.9489 438.916 36.1078 438.794 36.2247C438.671 36.3416 438.509 36.4078 438.34 36.41H435.91C423.08 36.41 417.2 44.29 417.2 58.91V75.18C417.197 75.3542 417.127 75.5206 417.004 75.6438C416.881 75.767 416.714 75.8374 416.54 75.84H404C403.825 75.84 403.657 75.7705 403.533 75.6467C403.41 75.5229 403.34 75.355 403.34 75.18V24C403.339 23.9129 403.355 23.8265 403.387 23.7458C403.42 23.6651 403.469 23.5918 403.53 23.5303C403.592 23.4687 403.665 23.4202 403.746 23.3875C403.827 23.3548 403.913 23.3386 404 23.34H416.56C416.647 23.34 416.732 23.3571 416.813 23.3902C416.893 23.4234 416.965 23.472 417.027 23.5333C417.088 23.5946 417.137 23.6673 417.17 23.7474C417.203 23.8275 417.22 23.9133 417.22 24V30.91C417.218 31.0473 417.259 31.1817 417.338 31.294C417.417 31.4063 417.53 31.4907 417.66 31.5351C417.79 31.5796 417.93 31.5817 418.061 31.5412C418.193 31.5008 418.308 31.4198 418.39 31.31C420.438 28.5826 423.099 26.3757 426.159 24.8678C429.218 23.3599 432.589 22.5932 436 22.63C437.053 22.5818 438.109 22.6692 439.14 22.89C439.296 22.9208 439.436 23.0061 439.535 23.1307C439.634 23.2553 439.685 23.411 439.68 23.57Z" fill="#E7F5F4"/>
<path d="M489.57 73C489.621 73.1496 489.617 73.3126 489.559 73.4594C489.5 73.6063 489.39 73.7271 489.25 73.8C484.05 76.54 480.37 77.42 476.09 77.42C463.68 77.42 455.48 70.9 455.48 56.5V35.38C455.477 35.2058 455.407 35.0394 455.284 34.9162C455.161 34.793 454.994 34.7226 454.82 34.72H444.89C444.803 34.7214 444.717 34.7052 444.636 34.6725C444.555 34.6398 444.482 34.5913 444.42 34.5297C444.359 34.4681 444.31 34.3949 444.277 34.3142C444.245 34.2335 444.229 34.1471 444.23 34.06V24C444.229 23.913 444.245 23.8265 444.277 23.7458C444.31 23.6652 444.359 23.5919 444.42 23.5303C444.482 23.4688 444.555 23.4202 444.636 23.3875C444.717 23.3548 444.803 23.3387 444.89 23.34H454.82C454.994 23.3374 455.161 23.2671 455.284 23.1438C455.407 23.0206 455.477 22.8542 455.48 22.68V8.15001C455.479 8.06296 455.495 7.97653 455.527 7.89585C455.56 7.81516 455.609 7.74187 455.67 7.68031C455.732 7.61875 455.805 7.57019 455.886 7.5375C455.967 7.50481 456.053 7.48866 456.14 7.49001H468.7C468.875 7.49001 469.043 7.55954 469.167 7.68332C469.29 7.80709 469.36 7.97496 469.36 8.15001V22.71C469.36 22.885 469.43 23.0529 469.553 23.1767C469.677 23.3005 469.845 23.37 470.02 23.37H487.13C487.217 23.3687 487.303 23.3848 487.384 23.4175C487.465 23.4502 487.538 23.4988 487.6 23.5603C487.661 23.6219 487.71 23.6952 487.743 23.7758C487.775 23.8565 487.791 23.943 487.79 24.03V34.03C487.791 34.1171 487.775 34.2035 487.743 34.2842C487.71 34.3649 487.661 34.4381 487.6 34.4997C487.538 34.5613 487.465 34.6098 487.384 34.6425C487.303 34.6752 487.217 34.6914 487.13 34.69H470C469.825 34.69 469.657 34.7595 469.533 34.8833C469.41 35.0071 469.34 35.175 469.34 35.35V55.44C469.34 61.75 472.39 64.44 477.01 64.44C479.818 64.274 482.561 63.5319 485.07 62.26C485.155 62.2196 485.247 62.1974 485.341 62.1948C485.434 62.1923 485.528 62.2095 485.615 62.2453C485.701 62.2812 485.779 62.3348 485.844 62.4028C485.909 62.4708 485.959 62.5516 485.99 62.64L489.57 73Z" fill="#E7F5F4"/>
<path d="M531.47 23.57L530.8 35.78C530.79 35.949 530.716 36.1078 530.594 36.2247C530.471 36.3416 530.309 36.4078 530.14 36.41H527.71C514.89 36.41 509 44.29 509 58.91V75.18C508.997 75.3542 508.927 75.5206 508.804 75.6438C508.681 75.7671 508.514 75.8374 508.34 75.84H495.78C495.605 75.84 495.437 75.7705 495.313 75.6467C495.19 75.5229 495.12 75.355 495.12 75.18V24C495.119 23.913 495.135 23.8265 495.167 23.7458C495.2 23.6652 495.249 23.5919 495.31 23.5303C495.372 23.4687 495.445 23.4202 495.526 23.3875C495.607 23.3548 495.693 23.3386 495.78 23.34H508.34C508.427 23.34 508.512 23.3571 508.593 23.3902C508.673 23.4234 508.745 23.472 508.807 23.5333C508.868 23.5946 508.917 23.6674 508.95 23.7474C508.983 23.8275 509 23.9133 509 24V30.91C509.001 31.0468 509.045 31.1799 509.125 31.2907C509.206 31.4016 509.318 31.4847 509.448 31.5287C509.578 31.5726 509.718 31.5751 509.849 31.536C509.98 31.4968 510.096 31.4178 510.18 31.31C512.226 28.5712 514.891 26.3547 517.956 24.8411C521.022 23.3275 524.401 22.5596 527.82 22.6C528.873 22.5514 529.929 22.6388 530.96 22.86C531.116 22.8977 531.253 22.9901 531.347 23.1204C531.44 23.2507 531.484 23.4102 531.47 23.57V23.57Z" fill="#E7F5F4"/>
<path d="M589.72 75.84H577.16C576.986 75.8374 576.819 75.7671 576.696 75.6438C576.573 75.5206 576.503 75.3542 576.5 75.18V73.07C576.499 72.9541 576.466 72.8406 576.406 72.7414C576.346 72.6422 576.261 72.5608 576.159 72.5058C576.057 72.4507 575.942 72.4239 575.826 72.4281C575.71 72.4324 575.598 72.4676 575.5 72.53C570.721 75.8588 565.002 77.5691 559.18 77.41C545.83 77.41 533.42 66.16 533.42 49.65C533.42 33.14 545.83 21.79 559.18 21.79C565.78 21.79 571.18 23.58 575.49 26.79C575.587 26.852 575.699 26.8872 575.814 26.8919C575.929 26.8966 576.043 26.8707 576.145 26.8168C576.246 26.7629 576.332 26.6829 576.393 26.5851C576.453 26.4873 576.487 26.3751 576.49 26.26V24C576.49 23.825 576.56 23.6571 576.683 23.5333C576.807 23.4095 576.975 23.34 577.15 23.34H589.71C589.797 23.3387 589.883 23.3548 589.964 23.3875C590.045 23.4202 590.118 23.4688 590.18 23.5303C590.241 23.5919 590.29 23.6652 590.323 23.7458C590.355 23.8265 590.371 23.913 590.37 24V75.18C590.37 75.3533 590.302 75.5197 590.18 75.6432C590.059 75.7667 589.893 75.8374 589.72 75.84V75.84ZM576.5 49.65C576.5 39.98 569.04 33.88 561.57 33.88C553.16 33.88 546.85 39.98 546.85 49.65C546.85 59.32 553.16 65.32 561.57 65.32C569 65.32 576.5 59.33 576.5 49.65Z" fill="#E7F5F4"/>
<path d="M638.81 54.64L650.41 57.64C650.58 57.6848 650.726 57.7949 650.816 57.9465C650.906 58.0981 650.933 58.279 650.89 58.45C647.72 70.06 637.05 77.45 624.77 77.45C609.41 77.45 596.69 66.2 596.69 49.69C596.69 33.18 609.41 21.83 624.77 21.83C630.546 21.7473 636.196 23.519 640.89 26.8849C645.584 30.2508 649.075 35.0333 650.85 40.53C650.877 40.614 650.887 40.7027 650.88 40.7907C650.872 40.8787 650.846 40.9642 650.804 41.0418C650.761 41.1195 650.704 41.1878 650.635 41.2425C650.565 41.2972 650.485 41.3372 650.4 41.36L638.34 44.78C638.17 44.8263 637.989 44.8041 637.836 44.718C637.682 44.6319 637.569 44.489 637.52 44.32C635.52 37.42 630.69 34.55 624.77 34.55C616.04 34.55 610.15 40.76 610.15 49.69C610.15 58.62 616.04 64.69 624.77 64.69C630.7 64.69 635.54 61.9 638.03 55.06C638.085 54.9057 638.195 54.7773 638.339 54.6997C638.483 54.6221 638.651 54.6008 638.81 54.64V54.64Z" fill="#E7F5F4"/>
<path d="M708.33 53.33H669.84C669.741 53.3293 669.643 53.3508 669.554 53.393C669.464 53.4352 669.385 53.497 669.323 53.5738C669.26 53.6506 669.216 53.7405 669.193 53.8368C669.17 53.9331 669.169 54.0333 669.19 54.13C670.78 61.23 675.99 65.53 682.19 65.53C686.19 65.53 691.19 65.03 694.98 58.99C695.052 58.8749 695.158 58.7845 695.283 58.7309C695.408 58.6773 695.547 58.663 695.68 58.69L706.84 61.05C706.936 61.0714 707.027 61.1138 707.105 61.1741C707.183 61.2345 707.247 61.3114 707.292 61.3993C707.337 61.4872 707.362 61.584 707.365 61.6826C707.368 61.7813 707.349 61.8794 707.31 61.97C702.57 72.4 693.39 77.41 682.19 77.41C667.36 77.41 655.27 66.16 655.27 49.65C655.27 33.14 667.36 21.79 682.4 21.79C696.4 21.79 708.48 32.62 709 48.6V52.67C709.001 52.7579 708.985 52.8452 708.952 52.9266C708.918 53.0079 708.869 53.0817 708.806 53.1434C708.744 53.2051 708.669 53.2534 708.587 53.2855C708.505 53.3176 708.418 53.3327 708.33 53.33V53.33ZM670.33 43.56H693.9C694.005 43.559 694.109 43.5332 694.203 43.4845C694.296 43.4359 694.377 43.3658 694.439 43.2801C694.5 43.1943 694.54 43.0952 694.556 42.991C694.572 42.8867 694.563 42.7802 694.53 42.68C693.784 40.064 692.18 37.7744 689.977 36.1786C687.774 34.5829 685.098 33.7734 682.38 33.88C679.612 33.8369 676.9 34.6627 674.625 36.2412C672.351 37.8198 670.628 40.0716 669.7 42.68C669.667 42.781 669.658 42.8884 669.674 42.9934C669.691 43.0985 669.732 43.1981 669.794 43.2841C669.857 43.3701 669.939 43.4399 670.034 43.4879C670.129 43.5359 670.234 43.5606 670.34 43.56H670.33Z" fill="#E7F5F4"/>
</g>
<defs>
<clipPath id="clip0">
<rect width="708.99" height="93.71" fill="white"/>
</clipPath>
</defs>
</svg>
